<svg width="187" height="193" viewBox="0 0 187 193" fill="none" xmlns="http://www.w3.org/2000/svg">
<rect width="187" height="193"/>
<path fill-rule="evenodd" clip-rule="evenodd" d="M69.2304 90.8289L69.2304 90.8289L84.5261 110.791C86.6921 113.618 90.3221 114.473 92.6339 112.702C94.9458 110.93 95.0639 107.203 92.8979 104.376C92.8971 104.375 92.8963 104.374 92.8955 104.373L77.6115 84.4261C77.6084 84.422 77.6054 84.418 77.6023 84.414C75.4362 81.5872 71.8062 80.7316 69.4944 82.503C67.1826 84.2744 67.0644 88.002 69.2304 90.8289C69.2304 90.8289 69.2304 90.8289 69.2304 90.8289Z" fill="#5ACCD7"/>
<path d="M44.0812 142.205V152.296H39.2403V134.841H43.8539V137.921H44.0585C44.4448 136.905 45.0926 136.102 46.0017 135.512C46.9107 134.913 48.013 134.614 49.3085 134.614C50.5206 134.614 51.5774 134.879 52.4789 135.409C53.3804 135.94 54.0812 136.697 54.5812 137.682C55.0812 138.659 55.3312 139.826 55.3312 141.182V152.296H50.4903V142.046C50.4979 140.977 50.2251 140.144 49.6721 139.546C49.1191 138.94 48.3577 138.637 47.388 138.637C46.7365 138.637 46.1607 138.777 45.6607 139.057C45.1683 139.337 44.782 139.746 44.5017 140.284C44.2289 140.815 44.0888 141.455 44.0812 142.205ZM64.1238 152.625C63.0102 152.625 62.0178 152.432 61.1465 152.046C60.2753 151.652 59.5859 151.072 59.0784 150.307C58.5784 149.534 58.3284 148.572 58.3284 147.421C58.3284 146.451 58.5064 145.637 58.8624 144.977C59.2185 144.318 59.7034 143.788 60.317 143.387C60.9306 142.985 61.6276 142.682 62.4079 142.477C63.1958 142.273 64.0215 142.129 64.8852 142.046C65.9003 141.94 66.7185 141.841 67.3397 141.75C67.9609 141.652 68.4117 141.508 68.692 141.318C68.9723 141.129 69.1124 140.849 69.1124 140.477V140.409C69.1124 139.69 68.8852 139.133 68.4306 138.739C67.9837 138.345 67.3473 138.148 66.5215 138.148C65.6503 138.148 64.9571 138.341 64.442 138.727C63.9268 139.106 63.5859 139.583 63.4193 140.159L58.942 139.796C59.1693 138.735 59.6162 137.818 60.2829 137.046C60.9496 136.265 61.8094 135.667 62.8624 135.25C63.9231 134.826 65.1503 134.614 66.5443 134.614C67.514 134.614 68.442 134.727 69.3284 134.955C70.2223 135.182 71.014 135.534 71.7034 136.012C72.4003 136.489 72.9496 137.102 73.3511 137.852C73.7526 138.595 73.9534 139.485 73.9534 140.523V152.296H69.3624V149.875H69.2261C68.9458 150.421 68.5708 150.902 68.1011 151.318C67.6314 151.727 67.067 152.049 66.4079 152.284C65.7488 152.512 64.9874 152.625 64.1238 152.625ZM65.5102 149.284C66.2223 149.284 66.8511 149.144 67.3965 148.864C67.942 148.576 68.37 148.19 68.6806 147.705C68.9912 147.22 69.1465 146.671 69.1465 146.057V144.205C68.995 144.303 68.7867 144.394 68.5215 144.477C68.264 144.553 67.9723 144.625 67.6465 144.693C67.3208 144.754 66.995 144.811 66.6693 144.864C66.3435 144.909 66.0481 144.951 65.7829 144.989C65.2147 145.072 64.7185 145.205 64.2943 145.387C63.87 145.568 63.5405 145.815 63.3056 146.125C63.0708 146.428 62.9534 146.807 62.9534 147.262C62.9534 147.921 63.192 148.424 63.6693 148.773C64.1541 149.114 64.7678 149.284 65.5102 149.284ZM89.9562 142.205V152.296H85.1153V129.023H89.8198V137.921H90.0244C90.4183 136.89 91.0547 136.083 91.9335 135.5C92.8123 134.909 93.9145 134.614 95.2403 134.614C96.4524 134.614 97.5092 134.879 98.4107 135.409C99.3198 135.932 100.024 136.686 100.524 137.671C101.032 138.648 101.282 139.818 101.274 141.182V152.296H96.4335V142.046C96.441 140.97 96.1683 140.133 95.6153 139.534C95.0698 138.936 94.3047 138.637 93.3198 138.637C92.6607 138.637 92.0774 138.777 91.5698 139.057C91.0698 139.337 90.6759 139.746 90.388 140.284C90.1077 140.815 89.9638 141.455 89.9562 142.205ZM112.97 152.637C111.205 152.637 109.679 152.262 108.391 151.512C107.111 150.754 106.122 149.701 105.425 148.352C104.728 146.996 104.379 145.424 104.379 143.637C104.379 141.833 104.728 140.258 105.425 138.909C106.122 137.553 107.111 136.5 108.391 135.75C109.679 134.993 111.205 134.614 112.97 134.614C114.736 134.614 116.258 134.993 117.539 135.75C118.826 136.5 119.819 137.553 120.516 138.909C121.213 140.258 121.561 141.833 121.561 143.637C121.561 145.424 121.213 146.996 120.516 148.352C119.819 149.701 118.826 150.754 117.539 151.512C116.258 152.262 114.736 152.637 112.97 152.637ZM112.993 148.887C113.796 148.887 114.467 148.659 115.004 148.205C115.542 147.743 115.948 147.114 116.22 146.318C116.501 145.523 116.641 144.618 116.641 143.602C116.641 142.587 116.501 141.682 116.22 140.887C115.948 140.091 115.542 139.462 115.004 139C114.467 138.538 113.796 138.307 112.993 138.307C112.183 138.307 111.501 138.538 110.948 139C110.402 139.462 109.989 140.091 109.709 140.887C109.436 141.682 109.3 142.587 109.3 143.602C109.3 144.618 109.436 145.523 109.709 146.318C109.989 147.114 110.402 147.743 110.948 148.205C111.501 148.659 112.183 148.887 112.993 148.887ZM124.709 152.296V134.841H129.402V137.887H129.584C129.902 136.803 130.436 135.985 131.186 135.432C131.936 134.871 132.8 134.591 133.777 134.591C134.02 134.591 134.281 134.606 134.561 134.637C134.842 134.667 135.088 134.708 135.3 134.762V139.057C135.073 138.989 134.758 138.928 134.357 138.875C133.955 138.822 133.588 138.796 133.254 138.796C132.542 138.796 131.906 138.951 131.345 139.262C130.792 139.565 130.353 139.989 130.027 140.534C129.709 141.08 129.55 141.708 129.55 142.421V152.296H124.709ZM142.28 152.625C141.166 152.625 140.174 152.432 139.303 152.046C138.432 151.652 137.742 151.072 137.235 150.307C136.735 149.534 136.485 148.572 136.485 147.421C136.485 146.451 136.663 145.637 137.019 144.977C137.375 144.318 137.86 143.788 138.473 143.387C139.087 142.985 139.784 142.682 140.564 142.477C141.352 142.273 142.178 142.129 143.041 142.046C144.057 141.94 144.875 141.841 145.496 141.75C146.117 141.652 146.568 141.508 146.848 141.318C147.129 141.129 147.269 140.849 147.269 140.477V140.409C147.269 139.69 147.041 139.133 146.587 138.739C146.14 138.345 145.504 138.148 144.678 138.148C143.807 138.148 143.113 138.341 142.598 138.727C142.083 139.106 141.742 139.583 141.576 140.159L137.098 139.796C137.326 138.735 137.772 137.818 138.439 137.046C139.106 136.265 139.966 135.667 141.019 135.25C142.079 134.826 143.307 134.614 144.701 134.614C145.67 134.614 146.598 134.727 147.485 134.955C148.379 135.182 149.17 135.534 149.86 136.012C150.557 136.489 151.106 137.102 151.507 137.852C151.909 138.595 152.11 139.485 152.11 140.523V152.296H147.519V149.875H147.382C147.102 150.421 146.727 150.902 146.257 151.318C145.788 151.727 145.223 152.049 144.564 152.284C143.905 152.512 143.144 152.625 142.28 152.625ZM143.666 149.284C144.379 149.284 145.007 149.144 145.553 148.864C146.098 148.576 146.526 148.19 146.837 147.705C147.147 147.22 147.303 146.671 147.303 146.057V144.205C147.151 144.303 146.943 144.394 146.678 144.477C146.42 144.553 146.129 144.625 145.803 144.693C145.477 144.754 145.151 144.811 144.826 144.864C144.5 144.909 144.204 144.951 143.939 144.989C143.371 145.072 142.875 145.205 142.451 145.387C142.026 145.568 141.697 145.815 141.462 146.125C141.227 146.428 141.11 146.807 141.11 147.262C141.11 147.921 141.348 148.424 141.826 148.773C142.31 149.114 142.924 149.284 143.666 149.284Z" fill="url(#paint0_linear_115_149)"/>
<path d="M53.3738 166.457C52.946 166.457 52.5552 166.374 52.2012 166.208C51.8473 166.039 51.5657 165.795 51.3564 165.478C51.1471 165.158 51.0425 164.771 51.0425 164.315C51.0425 163.964 51.1087 163.669 51.241 163.429C51.3733 163.189 51.5611 162.992 51.8042 162.838C52.0473 162.684 52.3351 162.562 52.6675 162.473C52.9999 162.384 53.3661 162.315 53.7662 162.265C54.1632 162.216 54.4987 162.173 54.7726 162.136C55.0496 162.099 55.2604 162.041 55.4051 161.961C55.5497 161.881 55.622 161.751 55.622 161.573V161.407C55.622 160.924 55.4774 160.543 55.1881 160.266C54.9019 159.986 54.4895 159.846 53.9509 159.846C53.44 159.846 53.023 159.959 52.6998 160.183C52.3797 160.408 52.1551 160.673 52.0258 160.977L51.2456 160.696C51.4057 160.308 51.6272 159.999 51.9104 159.768C52.1935 159.534 52.5105 159.366 52.8614 159.265C53.2122 159.16 53.5677 159.108 53.9278 159.108C54.1986 159.108 54.4802 159.143 54.7726 159.214C55.0681 159.285 55.342 159.408 55.5943 159.583C55.8467 159.756 56.0514 159.997 56.2083 160.308C56.3653 160.616 56.4438 161.007 56.4438 161.481V166.296H55.622V165.174H55.5713C55.4728 165.383 55.3266 165.586 55.1327 165.783C54.9388 165.98 54.6957 166.142 54.4033 166.268C54.1109 166.394 53.7678 166.457 53.3738 166.457ZM53.4846 165.705C53.9216 165.705 54.3002 165.608 54.6203 165.414C54.9403 165.22 55.1865 164.963 55.3589 164.643C55.5343 164.32 55.622 163.964 55.622 163.576V162.552C55.5605 162.61 55.4574 162.662 55.3127 162.709C55.1712 162.755 55.0065 162.796 54.8188 162.833C54.6341 162.867 54.4495 162.896 54.2648 162.921C54.0801 162.946 53.9139 162.967 53.7662 162.986C53.3661 163.035 53.0245 163.112 52.7414 163.216C52.4582 163.321 52.2412 163.466 52.0904 163.65C51.9396 163.832 51.8642 164.066 51.8642 164.352C51.8642 164.783 52.0181 165.117 52.3259 165.354C52.6336 165.588 53.0199 165.705 53.4846 165.705ZM61.3349 169.102C60.8517 169.102 60.4286 169.039 60.0654 168.913C59.7022 168.79 59.396 168.621 59.1467 168.405C58.8974 168.19 58.7035 167.948 58.565 167.681L59.239 167.237C59.3406 167.416 59.476 167.591 59.6453 167.764C59.8176 167.936 60.0408 168.079 60.3147 168.193C60.5917 168.307 60.9318 168.364 61.3349 168.364C61.9628 168.364 62.469 168.207 62.8537 167.893C63.2415 167.579 63.4354 167.091 63.4354 166.429V164.832H63.3616C63.2662 165.048 63.1292 165.263 62.9507 165.478C62.7722 165.691 62.5383 165.868 62.249 166.009C61.9628 166.151 61.6073 166.222 61.1826 166.222C60.6163 166.222 60.1131 166.082 59.673 165.802C59.236 165.522 58.8913 165.121 58.6389 164.601C58.3896 164.078 58.265 163.455 58.265 162.732C58.265 162.015 58.3865 161.384 58.6297 160.839C58.8759 160.294 59.219 159.869 59.6591 159.565C60.0993 159.26 60.6117 159.108 61.1964 159.108C61.6304 159.108 61.9905 159.185 62.2767 159.339C62.5629 159.489 62.7922 159.677 62.9645 159.902C63.14 160.126 63.2769 160.345 63.3754 160.557H63.4585V159.205H64.2618V166.48C64.2618 167.08 64.1341 167.574 63.8786 167.962C63.6232 168.35 63.2754 168.636 62.8353 168.821C62.3952 169.009 61.8951 169.102 61.3349 169.102ZM61.2795 165.469C61.735 165.469 62.1243 165.36 62.4475 165.141C62.7707 164.92 63.0184 164.603 63.1908 164.19C63.3631 163.778 63.4493 163.287 63.4493 162.718C63.4493 162.164 63.3646 161.673 63.1954 161.245C63.0261 160.814 62.7799 160.476 62.4567 160.23C62.1367 159.98 61.7443 159.856 61.2795 159.856C60.8056 159.856 60.4055 159.983 60.0792 160.239C59.753 160.494 59.5068 160.839 59.3406 161.273C59.1744 161.704 59.0913 162.185 59.0913 162.718C59.0913 163.259 59.176 163.738 59.3452 164.154C59.5145 164.566 59.7622 164.889 60.0885 165.123C60.4147 165.354 60.8117 165.469 61.2795 165.469ZM69.3041 166.443C68.6424 166.443 68.07 166.289 67.5868 165.982C67.1036 165.671 66.7297 165.241 66.465 164.694C66.2034 164.143 66.0726 163.509 66.0726 162.792C66.0726 162.078 66.2034 161.444 66.465 160.89C66.7297 160.333 67.0944 159.897 67.5591 159.583C68.0269 159.266 68.567 159.108 69.1795 159.108C69.5642 159.108 69.935 159.179 70.292 159.32C70.6491 159.459 70.9691 159.672 71.2523 159.962C71.5385 160.248 71.7647 160.61 71.9309 161.047C72.0971 161.481 72.1802 161.995 72.1802 162.589V162.995H66.6404V162.27H71.34C71.34 161.815 71.2477 161.405 71.063 161.042C70.8814 160.676 70.6275 160.387 70.3013 160.174C69.9781 159.962 69.6042 159.856 69.1795 159.856C68.7301 159.856 68.3347 159.976 67.993 160.216C67.6514 160.456 67.3837 160.773 67.1898 161.167C66.999 161.561 66.902 161.991 66.8989 162.459V162.893C66.8989 163.456 66.9959 163.949 67.1898 164.371C67.3867 164.789 67.6653 165.114 68.0254 165.345C68.3854 165.575 68.8117 165.691 69.3041 165.691C69.6396 165.691 69.9335 165.639 70.1859 165.534C70.4413 165.429 70.6552 165.289 70.8276 165.114C71.003 164.935 71.1353 164.74 71.2246 164.527L72.0048 164.781C71.897 165.08 71.7201 165.355 71.4739 165.608C71.2307 165.86 70.926 166.063 70.5598 166.217C70.1966 166.368 69.7781 166.443 69.3041 166.443ZM74.8127 161.864V166.296H73.991V159.205H74.7897V160.317H74.8635C75.0297 159.954 75.2882 159.663 75.6391 159.445C75.993 159.223 76.43 159.112 76.9502 159.112C77.4272 159.112 77.8458 159.212 78.2058 159.412C78.569 159.609 78.8506 159.9 79.0507 160.285C79.2538 160.67 79.3553 161.142 79.3553 161.702V166.296H78.5336V161.753C78.5336 161.171 78.3705 160.711 78.0443 160.373C77.7211 160.034 77.2872 159.865 76.7424 159.865C76.37 159.865 76.0392 159.945 75.7499 160.105C75.4606 160.265 75.2313 160.496 75.062 160.797C74.8958 161.096 74.8127 161.451 74.8127 161.864ZM84.0722 166.443C83.4906 166.443 82.9812 166.289 82.5442 165.982C82.1072 165.674 81.7655 165.245 81.5193 164.694C81.2762 164.143 81.1546 163.501 81.1546 162.769C81.1546 162.039 81.2762 161.401 81.5193 160.853C81.7655 160.302 82.1087 159.874 82.5488 159.569C82.9889 159.262 83.5013 159.108 84.0861 159.108C84.517 159.108 84.8755 159.185 85.1617 159.339C85.4479 159.489 85.6772 159.677 85.8496 159.902C86.0219 160.126 86.1558 160.345 86.2512 160.557H86.3251V156.841H87.1514V166.296H86.3482V164.98H86.2512C86.1558 165.195 86.0204 165.417 85.845 165.645C85.6695 165.869 85.4372 166.059 85.1479 166.212C84.8617 166.366 84.5031 166.443 84.0722 166.443ZM84.1692 165.691C84.6277 165.691 85.0186 165.566 85.3418 165.317C85.6649 165.065 85.9111 164.718 86.0804 164.278C86.2527 163.835 86.3389 163.327 86.3389 162.755C86.3389 162.188 86.2543 161.688 86.085 161.254C85.9157 160.817 85.6695 160.476 85.3464 160.23C85.0232 159.98 84.6308 159.856 84.1692 159.856C83.6952 159.856 83.2951 159.985 82.9689 160.243C82.6457 160.499 82.3995 160.845 82.2303 161.282C82.0641 161.719 81.981 162.21 81.981 162.755C81.981 163.306 82.0656 163.803 82.2349 164.246C82.4041 164.689 82.6504 165.041 82.9735 165.303C83.2997 165.562 83.6983 165.691 84.1692 165.691ZM91.4724 166.457C91.0447 166.457 90.6538 166.374 90.2999 166.208C89.9459 166.039 89.6643 165.795 89.455 165.478C89.2458 165.158 89.1411 164.771 89.1411 164.315C89.1411 163.964 89.2073 163.669 89.3396 163.429C89.472 163.189 89.6597 162.992 89.9028 162.838C90.146 162.684 90.4337 162.562 90.7661 162.473C91.0985 162.384 91.4648 162.315 91.8648 162.265C92.2619 162.216 92.5973 162.173 92.8712 162.136C93.1482 162.099 93.359 162.041 93.5037 161.961C93.6483 161.881 93.7207 161.751 93.7207 161.573V161.407C93.7207 160.924 93.576 160.543 93.2867 160.266C93.0005 159.986 92.5881 159.846 92.0495 159.846C91.5386 159.846 91.1216 159.959 90.7984 160.183C90.4784 160.408 90.2537 160.673 90.1244 160.977L89.3442 160.696C89.5043 160.308 89.7259 159.999 90.009 159.768C90.2922 159.534 90.6092 159.366 90.96 159.265C91.3109 159.16 91.6663 159.108 92.0264 159.108C92.2973 159.108 92.5789 159.143 92.8712 159.214C93.1667 159.285 93.4406 159.408 93.693 159.583C93.9453 159.756 94.15 159.997 94.307 160.308C94.4639 160.616 94.5424 161.007 94.5424 161.481V166.296H93.7207V165.174H93.6699C93.5714 165.383 93.4252 165.586 93.2313 165.783C93.0374 165.98 92.7943 166.142 92.5019 166.268C92.2095 166.394 91.8664 166.457 91.4724 166.457ZM91.5832 165.705C92.0203 165.705 92.3988 165.608 92.7189 165.414C93.039 165.22 93.2852 164.963 93.4575 164.643C93.633 164.32 93.7207 163.964 93.7207 163.576V162.552C93.6591 162.61 93.556 162.662 93.4114 162.709C93.2698 162.755 93.1051 162.796 92.9174 162.833C92.7327 162.867 92.5481 162.896 92.3634 162.921C92.1788 162.946 92.0126 162.967 91.8648 162.986C91.4648 163.035 91.1231 163.112 90.84 163.216C90.5568 163.321 90.3399 163.466 90.1891 163.65C90.0383 163.832 89.9629 164.066 89.9629 164.352C89.9629 164.783 90.1167 165.117 90.4245 165.354C90.7323 165.588 91.1185 165.705 91.5832 165.705ZM96.7283 166.296V159.205H97.527V160.294H97.6008C97.7424 159.928 97.9778 159.64 98.3071 159.431C98.6395 159.219 99.0381 159.112 99.5028 159.112C99.9922 159.112 100.394 159.228 100.708 159.459C101.025 159.686 101.262 160 101.419 160.4H101.479C101.639 160.006 101.899 159.694 102.259 159.463C102.622 159.229 103.062 159.112 103.579 159.112C104.238 159.112 104.758 159.32 105.14 159.736C105.521 160.148 105.712 160.751 105.712 161.545V166.296H104.89V161.545C104.89 160.985 104.747 160.565 104.461 160.285C104.175 160.005 103.798 159.865 103.33 159.865C102.788 159.865 102.371 160.031 102.079 160.363C101.786 160.696 101.64 161.117 101.64 161.628V166.296H100.8V161.471C100.8 160.991 100.666 160.603 100.398 160.308C100.131 160.013 99.7536 159.865 99.2674 159.865C98.9411 159.865 98.6472 159.945 98.3856 160.105C98.1271 160.265 97.9224 160.488 97.7716 160.774C97.6239 161.057 97.55 161.384 97.55 161.753V166.296H96.7283ZM110.754 166.443C110.093 166.443 109.52 166.289 109.037 165.982C108.554 165.671 108.18 165.241 107.915 164.694C107.654 164.143 107.523 163.509 107.523 162.792C107.523 162.078 107.654 161.444 107.915 160.89C108.18 160.333 108.545 159.897 109.009 159.583C109.477 159.266 110.017 159.108 110.63 159.108C111.014 159.108 111.385 159.179 111.742 159.32C112.099 159.459 112.419 159.672 112.702 159.962C112.989 160.248 113.215 160.61 113.381 161.047C113.547 161.481 113.63 161.995 113.63 162.589V162.995H108.091V162.27H112.79C112.79 161.815 112.698 161.405 112.513 161.042C112.332 160.676 112.078 160.387 111.751 160.174C111.428 159.962 111.054 159.856 110.63 159.856C110.18 159.856 109.785 159.976 109.443 160.216C109.102 160.456 108.834 160.773 108.64 161.167C108.449 161.561 108.352 161.991 108.349 162.459V162.893C108.349 163.456 108.446 163.949 108.64 164.371C108.837 164.789 109.115 165.114 109.476 165.345C109.836 165.575 110.262 165.691 110.754 165.691C111.09 165.691 111.384 165.639 111.636 165.534C111.892 165.429 112.105 165.289 112.278 165.114C112.453 164.935 112.586 164.74 112.675 164.527L113.455 164.781C113.347 165.08 113.17 165.355 112.924 165.608C112.681 165.86 112.376 166.063 112.01 166.217C111.647 166.368 111.228 166.443 110.754 166.443ZM116.263 161.864V166.296H115.441V159.205H116.24V160.317H116.314C116.48 159.954 116.738 159.663 117.089 159.445C117.443 159.223 117.88 159.112 118.4 159.112C118.877 159.112 119.296 159.212 119.656 159.412C120.019 159.609 120.301 159.9 120.501 160.285C120.704 160.67 120.806 161.142 120.806 161.702V166.296H119.984V161.753C119.984 161.171 119.821 160.711 119.494 160.373C119.171 160.034 118.737 159.865 118.193 159.865C117.82 159.865 117.489 159.945 117.2 160.105C116.911 160.265 116.681 160.496 116.512 160.797C116.346 161.096 116.263 161.451 116.263 161.864ZM125.762 159.205V159.92H122.379V159.205H125.762ZM123.436 157.506H124.262V164.444C124.262 164.74 124.313 164.972 124.414 165.141C124.516 165.308 124.648 165.426 124.811 165.497C124.975 165.565 125.148 165.599 125.333 165.599C125.441 165.599 125.533 165.592 125.61 165.58C125.687 165.565 125.755 165.549 125.813 165.534L125.989 166.277C125.909 166.308 125.81 166.336 125.693 166.36C125.576 166.388 125.432 166.402 125.259 166.402C124.958 166.402 124.667 166.336 124.387 166.203C124.11 166.071 123.882 165.874 123.704 165.612C123.525 165.351 123.436 165.026 123.436 164.638V157.506ZM130.309 166.443C129.696 166.443 129.154 166.288 128.684 165.977C128.216 165.666 127.85 165.237 127.585 164.689C127.32 164.138 127.188 163.503 127.188 162.782C127.188 162.056 127.32 161.418 127.585 160.867C127.85 160.313 128.216 159.882 128.684 159.574C129.154 159.263 129.696 159.108 130.309 159.108C130.921 159.108 131.461 159.263 131.929 159.574C132.397 159.885 132.763 160.316 133.028 160.867C133.295 161.418 133.429 162.056 133.429 162.782C133.429 163.503 133.297 164.138 133.032 164.689C132.768 165.237 132.4 165.666 131.929 165.977C131.461 166.288 130.921 166.443 130.309 166.443ZM130.309 165.691C130.801 165.691 131.218 165.558 131.56 165.294C131.901 165.029 132.16 164.677 132.335 164.237C132.514 163.797 132.603 163.312 132.603 162.782C132.603 162.253 132.514 161.767 132.335 161.324C132.16 160.88 131.901 160.525 131.56 160.257C131.218 159.989 130.801 159.856 130.309 159.856C129.819 159.856 129.402 159.989 129.057 160.257C128.716 160.525 128.456 160.88 128.277 161.324C128.102 161.767 128.014 162.253 128.014 162.782C128.014 163.312 128.102 163.797 128.277 164.237C128.456 164.677 128.716 165.029 129.057 165.294C129.399 165.558 129.816 165.691 130.309 165.691ZM139.997 160.76L139.245 160.973C139.171 160.76 139.066 160.568 138.931 160.396C138.796 160.223 138.619 160.086 138.4 159.985C138.185 159.883 137.917 159.833 137.597 159.833C137.117 159.833 136.723 159.946 136.415 160.174C136.107 160.402 135.953 160.696 135.953 161.056C135.953 161.361 136.058 161.608 136.267 161.799C136.48 161.987 136.806 162.136 137.246 162.247L138.317 162.51C138.911 162.655 139.356 162.884 139.651 163.198C139.95 163.512 140.099 163.906 140.099 164.38C140.099 164.78 139.988 165.135 139.767 165.446C139.545 165.757 139.236 166.002 138.839 166.18C138.445 166.356 137.988 166.443 137.468 166.443C136.775 166.443 136.204 166.288 135.755 165.977C135.306 165.663 135.018 165.211 134.892 164.62L135.681 164.426C135.783 164.848 135.981 165.166 136.277 165.382C136.575 165.597 136.967 165.705 137.454 165.705C137.998 165.705 138.434 165.583 138.76 165.34C139.086 165.094 139.25 164.786 139.25 164.417C139.25 164.13 139.154 163.89 138.963 163.697C138.772 163.5 138.483 163.355 138.095 163.263L136.937 162.986C136.321 162.838 135.866 162.604 135.57 162.284C135.275 161.964 135.127 161.567 135.127 161.093C135.127 160.702 135.233 160.359 135.446 160.063C135.658 159.765 135.95 159.531 136.323 159.362C136.695 159.192 137.12 159.108 137.597 159.108C138.246 159.108 138.765 159.255 139.153 159.551C139.543 159.843 139.825 160.246 139.997 160.76Z" fill="url(#paint1_linear_115_149)"/>
<circle cx="92.3085" cy="50.2956" r="3" fill="#01568C"/>
<circle cx="146.308" cy="100.296" r="3" fill="#01568C"/>
<circle cx="40.3085" cy="100.296" r="3" fill="#01568C"/>
<path fill-rule="evenodd" clip-rule="evenodd" d="M147.3 132.296H148.834C156.512 122.032 161.331 109.539 162.081 95.8787C164.14 58.3473 134.698 26.2148 96.3205 24.1088C57.9424 22.0028 25.1613 50.7208 23.1018 88.2523C22.2021 104.648 27.3142 120.014 36.5569 132.296H38.0158C32.1383 122.337 29.0467 110.667 29.7224 98.353C31.5806 64.49 61.2247 38.5827 95.9342 40.4873C130.644 42.392 157.275 71.3874 155.417 105.25C154.876 115.102 151.984 124.28 147.3 132.296Z" fill="url(#paint2_linear_115_149)"/>
<path fill-rule="evenodd" clip-rule="evenodd" d="M112.481 78.3208L87.6702 101.415C84.1567 104.686 83.1932 109.362 85.5181 111.859C87.843 114.357 92.5759 113.731 96.0894 110.46C96.0911 110.459 96.0928 110.457 96.0945 110.455L120.897 87.369C120.898 87.3679 120.899 87.3667 120.9 87.3656C120.9 87.3656 120.9 87.3656 120.9 87.3656C124.414 84.0952 125.377 79.4192 123.052 76.9215C120.727 74.4238 115.994 75.0503 112.481 78.3208C112.481 78.3208 112.481 78.3208 112.481 78.3208Z" fill="url(#paint3_linear_115_149)"/>
<defs>
<linearGradient id="paint0_linear_115_149" x1="21.8085" y1="138.296" x2="181.808" y2="141.296" gradientUnits="userSpaceOnUse">
<stop stop-color="#01568C"/>
<stop offset="1" stop-color="#5ACCD7"/>
</linearGradient>
<linearGradient id="paint1_linear_115_149" x1="38.2529" y1="160.27" x2="162.584" y2="164.69" gradientUnits="userSpaceOnUse">
<stop stop-color="#01568C"/>
<stop offset="1" stop-color="#5ACCD7"/>
</linearGradient>
<linearGradient id="paint2_linear_115_149" x1="-20.6915" y1="39.2956" x2="192.308" y2="117.296" gradientUnits="userSpaceOnUse">
<stop stop-color="#5ACCD7"/>
<stop offset="1" stop-color="#01568C"/>
</linearGradient>
<linearGradient id="paint3_linear_115_149" x1="133.223" y1="67.8186" x2="93.09" y2="100.207" gradientUnits="userSpaceOnUse">
<stop stop-color="#01568C"/>
<stop offset="1" stop-color="#5ACCD7"/>
</linearGradient>
</defs>
</svg>
