<svg width="208" height="208" viewBox="0 0 208 208" fill="none" xmlns="http://www.w3.org/2000/svg">
<path d="M48.1089 95.7826C43.0608 75.9162 45.1089 55.2826 45.1089 55.2826C43.4017 53.9949 19.8112 61.5256 19.109 74.1343C29.3543 109.958 43.1498 123.47 70.1089 136.283C60.4739 122.818 54.2295 117.168 48.1089 95.7826Z" fill="#5ACCD7" stroke="#3018D1" stroke-linejoin="round"/>
<path d="M57.8143 137.491C40.2467 126.93 27.1806 110.83 27.1806 110.83C25.0615 111.116 13.6018 133.068 21.9764 142.52C54.4667 160.761 73.7767 160.652 101.946 150.781C85.6256 147.996 77.2127 148.376 57.8143 137.491Z" fill="#3018D1" stroke="#5ACCD7" stroke-linejoin="round"/>
<path d="M95.9739 159.181C76.0853 164.141 55.461 162.002 55.461 162.002C54.1657 163.703 61.5916 187.327 74.1971 188.085C110.066 177.999 123.639 164.263 136.571 137.361C123.064 146.936 117.386 153.156 95.9739 159.181Z" fill="#5ACCD7" stroke="#3018D1" stroke-linejoin="round"/>
<path d="M137.725 149.661C127.086 167.182 110.928 180.176 110.928 180.176C111.205 182.297 133.106 193.854 142.595 185.521C160.98 153.112 160.956 133.802 151.211 105.589C148.354 121.897 148.696 130.311 137.725 149.661Z" fill="#3018D1" stroke="#5ACCD7" stroke-linejoin="round"/>
<path d="M159.39 111.626C164.446 131.491 162.406 152.125 162.406 152.125C164.114 153.412 187.701 145.872 188.399 133.263C178.139 97.443 164.338 83.9365 137.374 71.1351C147.014 84.5954 153.261 90.2435 159.39 111.626Z" fill="#5ACCD7" stroke="#3018D1" stroke-linejoin="round"/>
<path d="M149.668 69.9218C167.24 80.4758 180.312 96.5709 180.312 96.5709C182.431 96.2833 193.882 74.3266 185.504 64.878C153.006 46.6507 133.696 46.7677 105.531 56.6496C121.852 59.4277 130.265 59.0441 149.668 69.9218Z" fill="#3018D1" stroke="#5ACCD7" stroke-linejoin="round"/>
<path d="M111.499 48.2467C131.386 43.2788 152.011 45.4102 152.011 45.4102C153.306 43.7082 145.87 20.0875 133.265 19.3344C97.3996 29.435 83.8319 43.1758 70.911 70.083C84.4139 60.5025 90.0897 54.2809 111.499 48.2467Z" fill="#5ACCD7" stroke="#3018D1" stroke-linejoin="round"/>
<path d="M69.7523 57.7835C80.3842 40.2588 96.5371 27.2577 96.5371 27.2577C96.259 25.1375 74.3533 13.5893 64.8676 21.9257C46.4962 54.342 46.5275 73.6524 56.2843 101.861C59.1348 85.5522 58.7886 77.1378 69.7523 57.7835Z" fill="#3018D1" stroke="#5ACCD7" stroke-linejoin="round"/>
<path d="M97.5673 107.627C97.9416 105.189 101.226 70.9093 102.522 59.2466C103.159 71.206 103.739 106.079 103.365 108.517C103.594 110.247 103.474 113.053 100.272 112.561C97.0696 112.069 96.9743 111.49 97.5673 107.627Z" fill="#3018D1"/>
<path d="M100.203 105.705C101.804 106.86 124.978 121.762 132.803 126.952C124.124 122.947 99.2423 110.414 97.641 109.26C96.3402 108.772 94.394 107.652 95.809 105.689C97.224 103.726 97.666 103.877 100.203 105.705Z" fill="#3018D1"/>
</svg>
