<svg width="1272" height="484" viewBox="0 0 1272 484" fill="none" xmlns="http://www.w3.org/2000/svg">
<path d="M595.866 422.992C587.351 418.2 567.886 424.538 563.22 432.828C561.119 436.562 562.738 440.411 567.556 443.122C572.793 446.07 577.761 445.333 581.962 447.697C586.198 450.082 588.156 454.717 593.347 457.638C598.164 460.35 602.295 459.737 604.396 456.003C609.062 447.713 604.381 427.785 595.866 422.992ZM580.833 412.755C581.804 408.42 579.72 404.086 576.178 403.073C572.637 402.06 568.979 404.753 568.008 409.088C567.036 413.422 569.121 417.757 572.662 418.77C576.204 419.782 579.862 417.089 580.833 412.755ZM591.169 415.644C594.976 416.641 599.153 413.103 600.498 407.743C601.843 402.383 599.846 397.232 596.038 396.235C592.23 395.239 588.053 398.777 586.709 404.136C585.364 409.496 587.361 414.65 591.169 415.644ZM623.108 429.488C620.405 426.986 615.619 427.453 612.416 430.532C609.215 433.612 608.81 438.136 611.514 440.638C614.217 443.14 619.003 442.672 622.206 439.593C625.407 436.514 625.812 431.99 623.108 429.488ZM604.585 423.196C607.412 425.934 612.853 424.968 616.737 421.037C620.621 417.107 621.477 411.701 618.65 408.962C615.823 406.223 610.383 407.19 606.499 411.121C602.615 415.051 601.757 420.457 604.585 423.196Z" fill="white" fill-opacity="0.2"/>
<path d="M49.8661 123.992C41.3511 119.2 21.8863 125.538 17.2203 133.828C15.1189 137.562 16.7382 141.411 21.556 144.122C26.793 147.07 31.7613 146.333 35.9614 148.697C40.198 151.082 42.1556 155.717 47.3465 158.638C52.1643 161.35 56.2946 160.737 58.396 157.003C63.062 148.713 58.3811 128.785 49.8661 123.992ZM34.8328 113.755C35.804 109.42 33.7196 105.086 30.178 104.073C26.6365 103.06 22.9788 105.753 22.0075 110.088C21.0363 114.422 23.1207 118.757 26.6623 119.77C30.2038 120.782 33.8615 118.089 34.8328 113.755ZM45.1684 116.644C48.9762 117.641 53.1531 114.103 54.498 108.743C55.8429 103.383 53.8457 98.2318 50.0379 97.2354C46.2301 96.2389 42.0533 99.7767 40.7084 105.136C39.3635 110.496 41.3611 115.65 45.1684 116.644ZM77.1081 130.488C74.4047 127.986 69.619 128.453 66.4163 131.532C63.2147 134.612 62.8103 139.136 65.5137 141.638C68.2171 144.14 73.0029 143.672 76.2055 140.593C79.4071 137.514 79.8115 132.99 77.1081 130.488ZM58.5848 124.196C61.4123 126.934 66.8525 125.968 70.7366 122.037C74.6207 118.107 75.4772 112.701 72.6503 109.962C69.8234 107.223 64.3826 108.19 60.4985 112.121C56.6144 116.051 55.7573 121.457 58.5848 124.196Z" fill="white" fill-opacity="0.2"/>
<path d="M657.866 312.992C649.351 308.2 629.886 314.538 625.22 322.828C623.119 326.562 624.738 330.411 629.556 333.122C634.793 336.07 639.761 335.333 643.961 337.697C648.198 340.082 650.156 344.717 655.347 347.638C660.164 350.35 664.295 349.737 666.396 346.003C671.062 337.713 666.381 317.785 657.866 312.992ZM642.833 302.755C643.804 298.42 641.72 294.086 638.178 293.073C634.636 292.06 630.979 294.753 630.008 299.088C629.036 303.422 631.121 307.757 634.662 308.77C638.204 309.782 641.862 307.089 642.833 302.755ZM653.168 305.644C656.976 306.641 661.153 303.103 662.498 297.743C663.843 292.383 661.846 287.232 658.038 286.235C654.23 285.239 650.053 288.777 648.708 294.136C647.363 299.496 649.361 304.65 653.168 305.644ZM685.108 319.488C682.405 316.986 677.619 317.453 674.416 320.532C671.215 323.612 670.81 328.136 673.514 330.638C676.217 333.14 681.003 332.672 684.206 329.593C687.407 326.514 687.812 321.99 685.108 319.488ZM666.585 313.196C669.412 315.934 674.853 314.968 678.737 311.037C682.621 307.107 683.477 301.701 680.65 298.962C677.823 296.223 672.383 297.19 668.498 301.121C664.614 305.051 663.757 310.457 666.585 313.196Z" fill="white" fill-opacity="0.2"/>
<path d="M42.8661 440.992C34.3511 436.2 14.8863 442.538 10.2203 450.828C8.11886 454.562 9.73819 458.411 14.556 461.122C19.793 464.07 24.7613 463.333 28.9614 465.697C33.198 468.082 35.1556 472.717 40.3465 475.638C45.1643 478.35 49.2946 477.737 51.3961 474.003C56.062 465.713 51.3811 445.785 42.8661 440.992ZM27.8328 430.755C28.804 426.42 26.7196 422.086 23.178 421.073C19.6365 420.06 15.9788 422.753 15.0075 427.088C14.0363 431.422 16.1207 435.757 19.6623 436.77C23.2039 437.782 26.8615 435.089 27.8328 430.755ZM38.1684 433.644C41.9762 434.641 46.1531 431.103 47.498 425.743C48.8429 420.383 46.8457 415.232 43.0379 414.235C39.2301 413.239 35.0533 416.777 33.7084 422.136C32.3635 427.496 34.3611 432.65 38.1684 433.644ZM70.1081 447.488C67.4047 444.986 62.619 445.453 59.4163 448.532C56.2147 451.612 55.8103 456.136 58.5137 458.638C61.2171 461.14 66.0029 460.672 69.2055 457.593C72.4071 454.514 72.8115 449.99 70.1081 447.488ZM51.5848 441.196C54.4123 443.934 59.8525 442.968 63.7366 439.037C67.6207 435.107 68.4772 429.701 65.6503 426.962C62.8234 424.223 57.3826 425.19 53.4985 429.121C49.6144 433.051 48.7573 438.457 51.5848 441.196Z" fill="white" fill-opacity="0.2"/>
<path d="M42.8661 312.992C34.3511 308.2 14.8863 314.538 10.2203 322.828C8.11886 326.562 9.73819 330.411 14.556 333.122C19.793 336.07 24.7613 335.333 28.9614 337.697C33.198 340.082 35.1556 344.717 40.3465 347.638C45.1643 350.35 49.2946 349.737 51.396 346.003C56.062 337.713 51.3811 317.785 42.8661 312.992ZM27.8328 302.755C28.804 298.42 26.7196 294.086 23.178 293.073C19.6365 292.06 15.9788 294.753 15.0075 299.088C14.0363 303.422 16.1207 307.757 19.6623 308.77C23.2038 309.782 26.8615 307.089 27.8328 302.755ZM38.1684 305.644C41.9762 306.641 46.1531 303.103 47.498 297.743C48.8429 292.383 46.8457 287.232 43.0379 286.235C39.2301 285.239 35.0533 288.777 33.7084 294.136C32.3635 299.496 34.3611 304.65 38.1684 305.644ZM70.1081 319.488C67.4047 316.986 62.619 317.453 59.4163 320.532C56.2147 323.612 55.8103 328.136 58.5137 330.638C61.2171 333.14 66.0029 332.672 69.2055 329.593C72.4071 326.514 72.8115 321.99 70.1081 319.488ZM51.5848 313.196C54.4123 315.934 59.8525 314.968 63.7366 311.037C67.6207 307.107 68.4772 301.701 65.6503 298.962C62.8234 296.223 57.3826 297.19 53.4985 301.121C49.6144 305.051 48.7573 310.457 51.5848 313.196Z" fill="white" fill-opacity="0.2"/>
<path d="M715.866 35.9922C707.351 31.1997 687.886 37.5382 683.22 45.8285C681.119 49.5622 682.738 53.4109 687.556 56.1225C692.793 59.07 697.761 58.3332 701.962 60.6971C706.198 63.0816 708.156 67.7165 713.347 70.6382C718.164 73.3497 722.295 72.7371 724.396 69.0034C729.062 60.7131 724.381 40.7847 715.866 35.9922ZM700.833 25.7546C701.804 21.4199 699.72 17.0855 696.178 16.0727C692.637 15.0599 688.979 17.753 688.008 22.0876C687.036 26.4223 689.121 30.7567 692.662 31.7695C696.204 32.7823 699.862 30.0893 700.833 25.7546ZM711.169 28.6444C714.976 29.6408 719.153 26.1031 720.498 20.7433C721.843 15.3834 719.846 10.2318 716.038 9.23535C712.23 8.23894 708.053 11.7767 706.709 17.1365C705.364 22.4963 707.361 27.6497 711.169 28.6444ZM743.108 42.4877C740.405 39.9857 735.619 40.4534 732.416 43.5322C729.215 46.6115 728.81 51.1356 731.514 53.6377C734.217 56.1397 739.003 55.672 742.206 52.5933C745.407 49.5139 745.812 44.9898 743.108 42.4877ZM724.585 36.1956C727.412 38.9337 732.853 37.968 736.737 34.0373C740.621 30.1066 741.477 24.7014 738.65 21.9622C735.823 19.223 730.383 20.1898 726.499 24.1205C722.615 28.0513 721.757 33.4575 724.585 36.1956Z" fill="white" fill-opacity="0.2"/>
<path d="M464.866 187.992C456.351 183.2 436.886 189.538 432.22 197.828C430.119 201.562 431.738 205.411 436.556 208.122C441.793 211.07 446.761 210.333 450.961 212.697C455.198 215.082 457.156 219.717 462.347 222.638C467.164 225.35 471.295 224.737 473.396 221.003C478.062 212.713 473.381 192.785 464.866 187.992ZM449.833 177.755C450.804 173.42 448.72 169.086 445.178 168.073C441.636 167.06 437.979 169.753 437.008 174.088C436.036 178.422 438.121 182.757 441.662 183.77C445.204 184.782 448.862 182.089 449.833 177.755ZM460.168 180.644C463.976 181.641 468.153 178.103 469.498 172.743C470.843 167.383 468.846 162.232 465.038 161.235C461.23 160.239 457.053 163.777 455.708 169.136C454.363 174.496 456.361 179.65 460.168 180.644ZM492.108 194.488C489.405 191.986 484.619 192.453 481.416 195.532C478.215 198.612 477.81 203.136 480.514 205.638C483.217 208.14 488.003 207.672 491.206 204.593C494.407 201.514 494.812 196.99 492.108 194.488ZM473.585 188.196C476.412 190.934 481.853 189.968 485.737 186.037C489.621 182.107 490.477 176.701 487.65 173.962C484.823 171.223 479.383 172.19 475.498 176.121C471.614 180.051 470.757 185.457 473.585 188.196Z" fill="white" fill-opacity="0.2"/>
<path d="M131.866 247.992C123.351 243.2 103.886 249.538 99.2203 257.828C97.1189 261.562 98.7382 265.411 103.556 268.122C108.793 271.07 113.761 270.333 117.961 272.697C122.198 275.082 124.156 279.717 129.347 282.638C134.164 285.35 138.295 284.737 140.396 281.003C145.062 272.713 140.381 252.785 131.866 247.992ZM116.833 237.755C117.804 233.42 115.72 229.086 112.178 228.073C108.636 227.06 104.979 229.753 104.008 234.088C103.036 238.422 105.121 242.757 108.662 243.77C112.204 244.782 115.862 242.089 116.833 237.755ZM127.168 240.644C130.976 241.641 135.153 238.103 136.498 232.743C137.843 227.383 135.846 222.232 132.038 221.235C128.23 220.239 124.053 223.777 122.708 229.136C121.363 234.496 123.361 239.65 127.168 240.644ZM159.108 254.488C156.405 251.986 151.619 252.453 148.416 255.532C145.215 258.612 144.81 263.136 147.514 265.638C150.217 268.14 155.003 267.672 158.206 264.593C161.407 261.514 161.812 256.99 159.108 254.488ZM140.585 248.196C143.412 250.934 148.853 249.968 152.737 246.037C156.621 242.107 157.477 236.701 154.65 233.962C151.823 231.223 146.383 232.19 142.498 236.121C138.614 240.051 137.757 245.457 140.585 248.196Z" fill="white" fill-opacity="0.2"/>
<path d="M261.866 46.9922C253.351 42.1997 233.886 48.5382 229.22 56.8285C227.119 60.5622 228.738 64.4109 233.556 67.1225C238.793 70.07 243.761 69.3332 247.962 71.6971C252.198 74.0816 254.156 78.7165 259.347 81.6382C264.164 84.3497 268.295 83.7371 270.396 80.0034C275.062 71.7131 270.381 51.7847 261.866 46.9922ZM246.833 36.7546C247.804 32.4199 245.72 28.0855 242.178 27.0727C238.637 26.0599 234.979 28.753 234.008 33.0876C233.036 37.4223 235.121 41.7567 238.662 42.7695C242.204 43.7823 245.862 41.0893 246.833 36.7546ZM257.169 39.6444C260.976 40.6408 265.153 37.1031 266.498 31.7433C267.843 26.3834 265.846 21.2318 262.038 20.2354C258.23 19.2389 254.053 22.7767 252.709 28.1365C251.364 33.4963 253.361 38.6497 257.169 39.6444ZM289.108 53.4877C286.405 50.9857 281.619 51.4534 278.416 54.5322C275.215 57.6115 274.81 62.1356 277.514 64.6377C280.217 67.1397 285.003 66.672 288.206 63.5933C291.407 60.5139 291.812 55.9898 289.108 53.4877ZM270.585 47.1956C273.412 49.9337 278.853 48.968 282.737 45.0373C286.621 41.1066 287.477 35.7014 284.65 32.9622C281.823 30.223 276.383 31.1898 272.499 35.1205C268.615 39.0513 267.757 44.4575 270.585 47.1956Z" fill="white" fill-opacity="0.2"/>
<path d="M473.866 46.9922C465.351 42.1997 445.886 48.5382 441.22 56.8285C439.119 60.5622 440.738 64.4109 445.556 67.1225C450.793 70.07 455.761 69.3332 459.962 71.6971C464.198 74.0816 466.156 78.7165 471.347 81.6382C476.164 84.3497 480.295 83.7371 482.396 80.0034C487.062 71.7131 482.381 51.7847 473.866 46.9922ZM458.833 36.7546C459.804 32.4199 457.72 28.0855 454.178 27.0727C450.637 26.0599 446.979 28.753 446.008 33.0876C445.036 37.4223 447.121 41.7567 450.662 42.7695C454.204 43.7823 457.862 41.0893 458.833 36.7546ZM469.169 39.6444C472.976 40.6408 477.153 37.1031 478.498 31.7433C479.843 26.3834 477.846 21.2318 474.038 20.2354C470.23 19.2389 466.053 22.7767 464.709 28.1365C463.364 33.4963 465.361 38.6497 469.169 39.6444ZM501.108 53.4877C498.405 50.9857 493.619 51.4534 490.416 54.5322C487.215 57.6115 486.81 62.1356 489.514 64.6377C492.217 67.1397 497.003 66.672 500.206 63.5933C503.407 60.5139 503.812 55.9898 501.108 53.4877ZM482.585 47.1956C485.412 49.9337 490.853 48.968 494.737 45.0373C498.621 41.1066 499.477 35.7014 496.65 32.9622C493.823 30.223 488.383 31.1898 484.499 35.1205C480.615 39.0513 479.757 44.4575 482.585 47.1956Z" fill="white" fill-opacity="0.2"/>
<path d="M636.866 144.992C628.351 140.2 608.886 146.538 604.22 154.828C602.119 158.562 603.738 162.411 608.556 165.122C613.793 168.07 618.761 167.333 622.962 169.697C627.198 172.082 629.156 176.717 634.347 179.638C639.164 182.35 643.295 181.737 645.396 178.003C650.062 169.713 645.381 149.785 636.866 144.992ZM621.833 134.755C622.804 130.42 620.72 126.086 617.178 125.073C613.637 124.06 609.979 126.753 609.008 131.088C608.036 135.422 610.121 139.757 613.662 140.77C617.204 141.782 620.862 139.089 621.833 134.755ZM632.169 137.644C635.976 138.641 640.153 135.103 641.498 129.743C642.843 124.383 640.846 119.232 637.038 118.235C633.23 117.239 629.053 120.777 627.709 126.136C626.364 131.496 628.361 136.65 632.169 137.644ZM664.108 151.488C661.405 148.986 656.619 149.453 653.416 152.532C650.215 155.612 649.81 160.136 652.514 162.638C655.217 165.14 660.003 164.672 663.206 161.593C666.407 158.514 666.812 153.99 664.108 151.488ZM645.585 145.196C648.412 147.934 653.853 146.968 657.737 143.037C661.621 139.107 662.477 133.701 659.65 130.962C656.823 128.223 651.383 129.19 647.499 133.121C643.615 137.051 642.757 142.457 645.585 145.196Z" fill="white" fill-opacity="0.2"/>
<path d="M1137.87 44.9922C1129.35 40.1997 1109.89 46.5382 1105.22 54.8285C1103.12 58.5622 1104.74 62.4109 1109.56 65.1225C1114.79 68.07 1119.76 67.3332 1123.96 69.6971C1128.2 72.0816 1130.16 76.7165 1135.35 79.6382C1140.16 82.3497 1144.29 81.7371 1146.4 78.0034C1151.06 69.7131 1146.38 49.7847 1137.87 44.9922ZM1122.83 34.7546C1123.8 30.4199 1121.72 26.0855 1118.18 25.0727C1114.64 24.0599 1110.98 26.753 1110.01 31.0876C1109.04 35.4223 1111.12 39.7567 1114.66 40.7695C1118.2 41.7823 1121.86 39.0893 1122.83 34.7546ZM1133.17 37.6444C1136.98 38.6408 1141.15 35.1031 1142.5 29.7433C1143.84 24.3834 1141.85 19.2318 1138.04 18.2354C1134.23 17.2389 1130.05 20.7767 1128.71 26.1365C1127.36 31.4963 1129.36 36.6497 1133.17 37.6444ZM1165.11 51.4877C1162.4 48.9857 1157.62 49.4534 1154.42 52.5322C1151.21 55.6115 1150.81 60.1356 1153.51 62.6377C1156.22 65.1397 1161 64.672 1164.21 61.5933C1167.41 58.5139 1167.81 53.9898 1165.11 51.4877ZM1146.58 45.1956C1149.41 47.9337 1154.85 46.968 1158.74 43.0373C1162.62 39.1066 1163.48 33.7014 1160.65 30.9622C1157.82 28.223 1152.38 29.1898 1148.5 33.1205C1144.61 37.0513 1143.76 42.4575 1146.58 45.1956Z" fill="white" fill-opacity="0.2"/>
<path d="M1082.87 227.992C1074.35 223.2 1054.89 229.538 1050.22 237.828C1048.12 241.562 1049.74 245.411 1054.56 248.122C1059.79 251.07 1064.76 250.333 1068.96 252.697C1073.2 255.082 1075.16 259.717 1080.35 262.638C1085.16 265.35 1089.29 264.737 1091.4 261.003C1096.06 252.713 1091.38 232.785 1082.87 227.992ZM1067.83 217.755C1068.8 213.42 1066.72 209.086 1063.18 208.073C1059.64 207.06 1055.98 209.753 1055.01 214.088C1054.04 218.422 1056.12 222.757 1059.66 223.77C1063.2 224.782 1066.86 222.089 1067.83 217.755ZM1078.17 220.644C1081.98 221.641 1086.15 218.103 1087.5 212.743C1088.84 207.383 1086.85 202.232 1083.04 201.235C1079.23 200.239 1075.05 203.777 1073.71 209.136C1072.36 214.496 1074.36 219.65 1078.17 220.644ZM1110.11 234.488C1107.4 231.986 1102.62 232.453 1099.42 235.532C1096.21 238.612 1095.81 243.136 1098.51 245.638C1101.22 248.14 1106 247.672 1109.21 244.593C1112.41 241.514 1112.81 236.99 1110.11 234.488ZM1091.58 228.196C1094.41 230.934 1099.85 229.968 1103.74 226.037C1107.62 222.107 1108.48 216.701 1105.65 213.962C1102.82 211.223 1097.38 212.19 1093.5 216.121C1089.61 220.051 1088.76 225.457 1091.58 228.196Z" fill="white" fill-opacity="0.2"/>
<path d="M771.866 385.992C763.351 381.2 743.886 387.538 739.22 395.828C737.119 399.562 738.738 403.411 743.556 406.122C748.793 409.07 753.761 408.333 757.962 410.697C762.198 413.082 764.156 417.717 769.347 420.638C774.164 423.35 778.295 422.737 780.396 419.003C785.062 410.713 780.381 390.785 771.866 385.992ZM756.833 375.755C757.804 371.42 755.72 367.086 752.178 366.073C748.637 365.06 744.979 367.753 744.008 372.088C743.036 376.422 745.121 380.757 748.662 381.77C752.204 382.782 755.862 380.089 756.833 375.755ZM767.169 378.644C770.976 379.641 775.153 376.103 776.498 370.743C777.843 365.383 775.846 360.232 772.038 359.235C768.23 358.239 764.053 361.777 762.709 367.136C761.364 372.496 763.361 377.65 767.169 378.644ZM799.108 392.488C796.405 389.986 791.619 390.453 788.416 393.532C785.215 396.612 784.81 401.136 787.514 403.638C790.217 406.14 795.003 405.672 798.206 402.593C801.407 399.514 801.812 394.99 799.108 392.488ZM780.585 386.196C783.412 388.934 788.853 387.968 792.737 384.037C796.621 380.107 797.477 374.701 794.65 371.962C791.823 369.223 786.383 370.19 782.499 374.121C778.615 378.051 777.757 383.457 780.585 386.196Z" fill="white" fill-opacity="0.2"/>
<path d="M1232.87 433.992C1224.35 429.2 1204.89 435.538 1200.22 443.828C1198.12 447.562 1199.74 451.411 1204.56 454.122C1209.79 457.07 1214.76 456.333 1218.96 458.697C1223.2 461.082 1225.16 465.717 1230.35 468.638C1235.16 471.35 1239.29 470.737 1241.4 467.003C1246.06 458.713 1241.38 438.785 1232.87 433.992ZM1217.83 423.755C1218.8 419.42 1216.72 415.086 1213.18 414.073C1209.64 413.06 1205.98 415.753 1205.01 420.088C1204.04 424.422 1206.12 428.757 1209.66 429.77C1213.2 430.782 1216.86 428.089 1217.83 423.755ZM1228.17 426.644C1231.98 427.641 1236.15 424.103 1237.5 418.743C1238.84 413.383 1236.85 408.232 1233.04 407.235C1229.23 406.239 1225.05 409.777 1223.71 415.136C1222.36 420.496 1224.36 425.65 1228.17 426.644ZM1260.11 440.488C1257.4 437.986 1252.62 438.453 1249.42 441.532C1246.21 444.612 1245.81 449.136 1248.51 451.638C1251.22 454.14 1256 453.672 1259.21 450.593C1262.41 447.514 1262.81 442.99 1260.11 440.488ZM1241.58 434.196C1244.41 436.934 1249.85 435.968 1253.74 432.037C1257.62 428.107 1258.48 422.701 1255.65 419.962C1252.82 417.223 1247.38 418.19 1243.5 422.121C1239.61 426.051 1238.76 431.457 1241.58 434.196Z" fill="white" fill-opacity="0.2"/>
<path d="M1084.87 416.992C1076.35 412.2 1056.89 418.538 1052.22 426.828C1050.12 430.562 1051.74 434.411 1056.56 437.122C1061.79 440.07 1066.76 439.333 1070.96 441.697C1075.2 444.082 1077.16 448.717 1082.35 451.638C1087.16 454.35 1091.29 453.737 1093.4 450.003C1098.06 441.713 1093.38 421.785 1084.87 416.992ZM1069.83 406.755C1070.8 402.42 1068.72 398.086 1065.18 397.073C1061.64 396.06 1057.98 398.753 1057.01 403.088C1056.04 407.422 1058.12 411.757 1061.66 412.77C1065.2 413.782 1068.86 411.089 1069.83 406.755ZM1080.17 409.644C1083.98 410.641 1088.15 407.103 1089.5 401.743C1090.84 396.383 1088.85 391.232 1085.04 390.235C1081.23 389.239 1077.05 392.777 1075.71 398.136C1074.36 403.496 1076.36 408.65 1080.17 409.644ZM1112.11 423.488C1109.4 420.986 1104.62 421.453 1101.42 424.532C1098.21 427.612 1097.81 432.136 1100.51 434.638C1103.22 437.14 1108 436.672 1111.21 433.593C1114.41 430.514 1114.81 425.99 1112.11 423.488ZM1093.58 417.196C1096.41 419.934 1101.85 418.968 1105.74 415.037C1109.62 411.107 1110.48 405.701 1107.65 402.962C1104.82 400.223 1099.38 401.19 1095.5 405.121C1091.61 409.051 1090.76 414.457 1093.58 417.196Z" fill="white" fill-opacity="0.2"/>
<path d="M1251.87 164.992C1243.35 160.2 1223.89 166.538 1219.22 174.828C1217.12 178.562 1218.74 182.411 1223.56 185.122C1228.79 188.07 1233.76 187.333 1237.96 189.697C1242.2 192.082 1244.16 196.717 1249.35 199.638C1254.16 202.35 1258.29 201.737 1260.4 198.003C1265.06 189.713 1260.38 169.785 1251.87 164.992ZM1236.83 154.755C1237.8 150.42 1235.72 146.086 1232.18 145.073C1228.64 144.06 1224.98 146.753 1224.01 151.088C1223.04 155.422 1225.12 159.757 1228.66 160.77C1232.2 161.782 1235.86 159.089 1236.83 154.755ZM1247.17 157.644C1250.98 158.641 1255.15 155.103 1256.5 149.743C1257.84 144.383 1255.85 139.232 1252.04 138.235C1248.23 137.239 1244.05 140.777 1242.71 146.136C1241.36 151.496 1243.36 156.65 1247.17 157.644ZM1279.11 171.488C1276.4 168.986 1271.62 169.453 1268.42 172.532C1265.21 175.612 1264.81 180.136 1267.51 182.638C1270.22 185.14 1275 184.672 1278.21 181.593C1281.41 178.514 1281.81 173.99 1279.11 171.488ZM1260.58 165.196C1263.41 167.934 1268.85 166.968 1272.74 163.037C1276.62 159.107 1277.48 153.701 1274.65 150.962C1271.82 148.223 1266.38 149.19 1262.5 153.121C1258.61 157.051 1257.76 162.457 1260.58 165.196Z" fill="white" fill-opacity="0.2"/>
<path d="M1216.87 289.992C1208.35 285.2 1188.89 291.538 1184.22 299.828C1182.12 303.562 1183.74 307.411 1188.56 310.122C1193.79 313.07 1198.76 312.333 1202.96 314.697C1207.2 317.082 1209.16 321.717 1214.35 324.638C1219.16 327.35 1223.29 326.737 1225.4 323.003C1230.06 314.713 1225.38 294.785 1216.87 289.992ZM1201.83 279.755C1202.8 275.42 1200.72 271.086 1197.18 270.073C1193.64 269.06 1189.98 271.753 1189.01 276.088C1188.04 280.422 1190.12 284.757 1193.66 285.77C1197.2 286.782 1200.86 284.089 1201.83 279.755ZM1212.17 282.644C1215.98 283.641 1220.15 280.103 1221.5 274.743C1222.84 269.383 1220.85 264.232 1217.04 263.235C1213.23 262.239 1209.05 265.777 1207.71 271.136C1206.36 276.496 1208.36 281.65 1212.17 282.644ZM1244.11 296.488C1241.4 293.986 1236.62 294.453 1233.42 297.532C1230.21 300.612 1229.81 305.136 1232.51 307.638C1235.22 310.14 1240 309.672 1243.21 306.593C1246.41 303.514 1246.81 298.99 1244.11 296.488ZM1225.58 290.196C1228.41 292.934 1233.85 291.968 1237.74 288.037C1241.62 284.107 1242.48 278.701 1239.65 275.962C1236.82 273.223 1231.38 274.19 1227.5 278.121C1223.61 282.051 1222.76 287.457 1225.58 290.196Z" fill="white" fill-opacity="0.2"/>
<path d="M327.866 346.992C319.351 342.2 299.886 348.538 295.22 356.828C293.119 360.562 294.738 364.411 299.556 367.122C304.793 370.07 309.761 369.333 313.961 371.697C318.198 374.082 320.156 378.717 325.347 381.638C330.164 384.35 334.295 383.737 336.396 380.003C341.062 371.713 336.381 351.785 327.866 346.992ZM312.833 336.755C313.804 332.42 311.72 328.086 308.178 327.073C304.636 326.06 300.979 328.753 300.008 333.088C299.036 337.422 301.121 341.757 304.662 342.77C308.204 343.782 311.862 341.089 312.833 336.755ZM323.168 339.644C326.976 340.641 331.153 337.103 332.498 331.743C333.843 326.383 331.846 321.232 328.038 320.235C324.23 319.239 320.053 322.777 318.708 328.136C317.363 333.496 319.361 338.65 323.168 339.644ZM355.108 353.488C352.405 350.986 347.619 351.453 344.416 354.532C341.215 357.612 340.81 362.136 343.514 364.638C346.217 367.14 351.003 366.672 354.206 363.593C357.407 360.514 357.812 355.99 355.108 353.488ZM336.585 347.196C339.412 349.934 344.853 348.968 348.737 345.037C352.621 341.107 353.477 335.701 350.65 332.962C347.823 330.223 342.383 331.19 338.498 335.121C334.614 339.051 333.757 344.457 336.585 347.196Z" fill="white" fill-opacity="0.2"/>
</svg>
